<svg xmlns="http://www.w3.org/2000/svg" fill="#000000" stroke="#000000" viewBox="0 0 24 24"><g transform="scale(0.0469) translate(-144, -144)">
    <g stroke-width="0" fill="currentColor"/>
    <g stroke-linecap="round" stroke-linejoin="round" stroke="currentColor"/>
     <g fill="currentColor">
      <defs xmlns="http://www.w3.org/2000/svg" fill="currentColor">
  <clipPath fill="currentColor">
   <path d="m148.09 192h503.81v416h-503.81z" fill="currentColor"/>
  </clipPath>
 </defs>
<g xmlns="http://www.w3.org/2000/svg" clip-path="url(#a)" fill="currentColor">
  <path d="m165.83 402.36c23.605-23.664 62.25-23.664 85.914 0 18.992 18.992 37.984 37.984 56.977 56.977 79.625-82.738 159.19-165.54 238.81-248.28 23.125-24.086 61.77-24.863 85.855-1.6758 24.023 23.125 24.805 61.77 1.6758 85.855-93.824 97.539-187.71 195.14-281.53 292.68-23.906 25.645-61.832 26.242-86.934 1.1367l-100.77-100.77c-23.664-23.664-23.664-62.309 0-85.914z" fill="currentColor"/>
 </g>

      </g>
      </g></svg>