<svg xmlns="http://www.w3.org/2000/svg" fill="#000000" stroke="#000000" viewBox="0 0 24 24"><g transform="scale(0.0469) translate(-144, -144)">
    <g stroke-width="0" fill="currentColor"/>
    <g stroke-linecap="round" stroke-linejoin="round" stroke="currentColor"/>
     <g fill="currentColor">
      <defs xmlns="http://www.w3.org/2000/svg" fill="currentColor">
  <clipPath fill="currentColor">
   <path d="m148.09 374h503.81v238h-503.81z" fill="currentColor"/>
  </clipPath>
 </defs>
<g xmlns="http://www.w3.org/2000/svg" clip-path="url(#a)" fill="currentColor">
  <path d="m600.59 611.08h-401.18c-13.609 0-26.664-5.4062-36.285-15.031-9.625-9.625-15.031-22.676-15.031-36.285v-168.21c0-6.1211 3.2656-11.777 8.5664-14.836 5.3008-3.0625 11.832-3.0625 17.133 0 5.3008 3.0586 8.5664 8.7148 8.5664 14.836v168.21c0 4.3477 1.7266 8.5156 4.8008 11.594 3.0742 3.0742 7.2461 4.8008 11.594 4.8008h401.83c4.3516 0 8.5195-1.7266 11.594-4.8008 3.0742-3.0781 4.8047-7.2461 4.8047-11.594v-168.21c0-6.0898 3.2461-11.719 8.5234-14.766 5.2773-3.0469 11.773-3.0469 17.051 0 5.2734 3.0469 8.5234 8.6758 8.5234 14.766v168.21c0.003907 13.469-5.2891 26.398-14.738 36-9.4453 9.5977-22.289 15.102-35.758 15.316z" fill="currentColor"/>
 </g>
<path xmlns="http://www.w3.org/2000/svg" d="m403.69 456.15c-4.4883 0.22266-8.8711-1.4062-12.125-4.5039-3.2578-3.0977-5.0938-7.3984-5.0898-11.895v-222.96c0-6.1211 3.2656-11.777 8.5664-14.84 5.3008-3.0586 11.832-3.0586 17.133 0 5.3008 3.0625 8.5664 8.7188 8.5664 14.84v222.31c0.1875 4.5742-1.5508 9.0234-4.7891 12.262s-7.6836 4.9727-12.262 4.7891z" fill="currentColor"/>
<path xmlns="http://www.w3.org/2000/svg" d="m497.46 320.07c-4.5742 0.074219-8.9727-1.7695-12.133-5.082l-97.383-96.895c-3.1953-3.1953-4.9922-7.5273-4.9922-12.047s1.7969-8.8555 4.9922-12.051c3.1953-3.1953 7.5312-4.9922 12.051-4.9922s8.8516 1.7969 12.047 4.9922l97.547 97.383h0.003906c3.4922 3.0469 5.5273 7.4297 5.6094 12.062 0.082031 4.6328-1.7969 9.082-5.1797 12.254-3.3789 3.168-7.9453 4.7578-12.562 4.375z" fill="currentColor"/>
<path xmlns="http://www.w3.org/2000/svg" d="m302.53 320.07c-4.5195 0.027343-8.8477-1.8125-11.969-5.082-3.3633-3.1055-5.2773-7.4727-5.2773-12.051s1.9141-8.9453 5.2773-12.051l97.387-96.891c4.3047-4.3047 10.578-5.9883 16.461-4.4102 5.8789 1.5742 10.473 6.168 12.051 12.047 1.5742 5.8828-0.10547 12.156-4.4141 16.461l-97.383 97.387c-3.2422 3.1328-7.6289 4.793-12.133 4.5898z" fill="currentColor"/>

      </g>
      </g></svg>