<svg id="svg" fill="#000000" stroke="#000000" width="200px" height="200px" version="1.1" viewBox="144 144 512 512" xmlns="http://www.w3.org/2000/svg">
    <g id="IconSvg_bgCarrier" stroke-width="0"></g>
    <g id="IconSvg_tracerCarrier" stroke-linecap="round" stroke-linejoin="round" stroke="#CCCCCC"></g>
     <g id="IconSvg_iconCarrier">
      <path xmlns="http://www.w3.org/2000/svg" d="m472.28 184.99h-144.56c-48.504 0-94.191 22.789-123.37 61.539-29.176 38.75-38.453 88.957-25.051 135.57 13.406 46.617 47.93 84.227 93.234 101.56v128.21c0 1.2891 0.78906 2.4453 1.9883 2.9102 1.2031 0.46875 2.5664 0.15234 3.4375-0.79687l110.45-120.13h83.871c55.152-0.03125 106.11-29.473 133.67-77.242 27.566-47.77 27.566-106.62 0-154.39-27.566-47.77-78.52-77.211-133.67-77.242zm-72.277 130.3c6.3984 0 12.539 2.543 17.066 7.0703 4.5273 4.5273 7.0703 10.668 7.0703 17.066 0 6.4023-2.543 12.543-7.0703 17.066-4.5273 4.5273-10.668 7.0703-17.066 7.0703-6.4023 0-12.543-2.543-17.07-7.0703-4.5234-4.5234-7.0664-10.664-7.0664-17.066 0-6.3984 2.543-12.539 7.0664-17.066 4.5273-4.5273 10.668-7.0703 17.07-7.0703zm-104.08 0h-0.003907c6.4023 0 12.543 2.543 17.07 7.0703 4.5234 4.5273 7.0664 10.668 7.0664 17.066 0 6.4023-2.543 12.543-7.0664 17.066-4.5273 4.5273-10.668 7.0703-17.07 7.0703-6.3984 0-12.539-2.543-17.066-7.0703-4.5273-4.5234-7.0703-10.664-7.0703-17.066 0.003906-6.3984 2.5469-12.539 7.0703-17.066 4.5273-4.5273 10.668-7.0703 17.066-7.0703zm208.16 48.273c-6.4023 0-12.539-2.543-17.066-7.0703-4.5273-4.5234-7.0703-10.664-7.0703-17.066 0-6.3984 2.543-12.539 7.0703-17.066 4.5273-4.5273 10.664-7.0703 17.066-7.0703 6.4023 0 12.539 2.543 17.066 7.0703 4.5273 4.5273 7.0703 10.668 7.0703 17.066 0 6.4023-2.543 12.543-7.0703 17.066-4.5273 4.5273-10.664 7.0703-17.066 7.0703z"></path>

      </g>
      </svg>