<svg xmlns="http://www.w3.org/2000/svg" id="svg" fill="#000000" stroke="#000000" version="1.1" viewBox="0 0 24 24"><g transform="scale(0.0469) translate(-144, -144)">
    <g id="IconSvg_bgCarrier" stroke-width="0"/>
    <g id="IconSvg_tracerCarrier" stroke-linecap="round" stroke-linejoin="round" stroke="#CCCCCC"/>
     <g id="IconSvg_iconCarrier">
      <path xmlns="http://www.w3.org/2000/svg" d="m257.38 597.54c-5.3359 0-10.453-2.1211-14.227-5.8945-3.7773-3.7734-5.8984-8.8906-5.8984-14.227v-100.64c-35.168-24.793-58.082-63.41-62.988-106.16s8.6602-85.555 37.293-117.67c28.633-32.117 69.609-50.488 112.64-50.5h151.55c53.926 0 103.75 28.77 130.72 75.469 26.961 46.703 26.961 104.24 0 150.94-26.965 46.703-76.793 75.469-130.72 75.469h-109.57l-95.141 87.883c-3.7266 3.4258-8.6016 5.3281-13.66 5.332zm66.816-360.59c-34.094-0.03125-66.492 14.883-88.633 40.809s-31.801 60.258-26.43 93.926c5.3672 33.668 25.23 63.289 54.336 81.043l8.2852 5.0391v86.816l80.93-74.758h123.06c41.582-0.027344 79.992-22.223 100.77-58.238 20.785-36.016 20.785-80.379 0-116.39-20.781-36.016-59.191-58.215-100.77-58.242z"/>

      </g>
      </g></svg>