<?xml version="1.0" encoding="iso-8859-1"?>
<!-- Uploaded to: SVG Repo, www.svgrepo.com, Generator: SVG Repo Mixer Tools -->
<!DOCTYPE svg PUBLIC "-//W3C//DTD SVG 1.1//EN" "http://www.w3.org/Graphics/SVG/1.1/DTD/svg11.dtd">
<svg fill="#000000" version="1.1" id="Capa_1" xmlns="http://www.w3.org/2000/svg" xmlns:xlink="http://www.w3.org/1999/xlink" 
	 width="800px" height="800px" viewBox="0 0 29.471 29.471"
	 xml:space="preserve">
<g>
	<path d="M29.47,2.726v5H7.934v-5H29.47z M7.934,17.235h21.537v-5H7.934V17.235z M7.934,26.745h21.537v-5H7.934V26.745z M1.109,2.19
		c0.11,0,0.209,0.029,0.293,0.086c0.086,0.058,0.145,0.127,0.176,0.207c0.031,0.082,0.047,0.285,0.047,0.611v3.656
		c0,0.441-0.023,0.727-0.068,0.848C1.512,7.72,1.425,7.815,1.297,7.886C1.168,7.952,0.953,7.989,0.652,7.989H0.464v0.191h3.713
		V7.989H4.016c-0.268,0-0.461-0.039-0.582-0.114C3.312,7.799,3.233,7.7,3.196,7.582c-0.039-0.119-0.059-0.396-0.059-0.83V0.983
		H2.965L0.369,2.17l0.095,0.188C0.716,2.245,0.931,2.19,1.109,2.19z M4.073,16.591c-0.074,0.074-0.166,0.127-0.278,0.158
		c-0.112,0.031-0.356,0.047-0.73,0.047H1.541c1.18-1.146,1.943-2.041,2.295-2.685c0.257-0.475,0.385-0.942,0.385-1.403
		c0-0.253-0.083-0.523-0.25-0.812c-0.166-0.291-0.396-0.518-0.691-0.684c-0.295-0.168-0.619-0.25-0.978-0.25
		c-0.499,0-0.938,0.156-1.321,0.479c-0.381,0.318-0.665,0.812-0.853,1.478l0.192,0.067c0.295-0.535,0.709-0.803,1.242-0.803
		c0.325,0,0.602,0.121,0.826,0.363c0.227,0.238,0.338,0.543,0.338,0.904c0,0.5-0.136,1.014-0.408,1.535
		c-0.271,0.521-1.043,1.543-2.315,3.059v0.113h4.149l0.396-2.039H4.361C4.241,16.36,4.145,16.517,4.073,16.591z M3.295,24.019
		c0.315-0.184,0.547-0.396,0.694-0.637c0.146-0.24,0.221-0.49,0.221-0.752c0-0.398-0.159-0.746-0.477-1.045
		c-0.316-0.299-0.721-0.447-1.209-0.447c-0.479,0-0.912,0.146-1.304,0.438c-0.39,0.291-0.709,0.727-0.959,1.305l0.192,0.068
		c0.34-0.514,0.752-0.77,1.236-0.77c0.313,0,0.573,0.104,0.783,0.309c0.21,0.207,0.314,0.453,0.314,0.742
		c0,0.207-0.057,0.412-0.166,0.615c-0.111,0.203-0.243,0.354-0.396,0.453c-0.152,0.098-0.427,0.205-0.822,0.318V24.8
		c0.643,0.15,1.129,0.428,1.463,0.83c0.332,0.398,0.498,0.838,0.498,1.312c0,0.311-0.092,0.566-0.274,0.77
		c-0.183,0.203-0.404,0.307-0.66,0.307c-0.295,0-0.61-0.141-0.949-0.414c-0.338-0.275-0.534-0.428-0.591-0.455
		c-0.102-0.047-0.208-0.072-0.322-0.072c-0.148,0-0.279,0.057-0.396,0.17C0.057,27.358,0,27.495,0,27.655
		c0,0.219,0.099,0.395,0.296,0.535c0.274,0.195,0.709,0.297,1.306,0.297c0.895,0,1.607-0.258,2.141-0.773
		c0.531-0.514,0.799-1.139,0.799-1.875c0-0.436-0.106-0.799-0.32-1.088C4.01,24.46,3.7,24.218,3.295,24.019z"/>
</g>
</svg>