<svg id="svg" fill="#000000" stroke="#000000" width="200px" height="200px" version="1.1" viewBox="144 144 512 512" xmlns="http://www.w3.org/2000/svg">
    <g id="IconSvg_bgCarrier" stroke-width="0"></g>
    <g id="IconSvg_tracerCarrier" stroke-linecap="round" stroke-linejoin="round" stroke="#CCCCCC"></g>
     <g id="IconSvg_iconCarrier">
      <g xmlns="http://www.w3.org/2000/svg">
  <path d="m476.18 231.04c-19.098-0.0625-38.098 2.7227-56.375 8.2617 69.426 23.426 118.2 77.688 118.2 140.66h-0.003906c-0.19531 26.738-8.7969 52.734-24.586 74.312 7.2305-1.332 14.367-3.1328 21.363-5.3906 21.516 26.094 48.184 47.465 78.34 62.773 1.1328 0.57812 2.5039 0.36328 3.4102-0.52734 0.90234-0.89062 1.1328-2.2617 0.57031-3.4023-8.3633-17.281-26.703-60.609-20.203-95.574 18.594-17.676 29.332-42.059 29.828-67.711 0-62.621-67.41-113.41-150.54-113.41z"></path>
  <path d="m184.14 564.14c-0.62891 1.2852-0.37109 2.8281 0.64453 3.8359 1.0156 1.0078 2.5625 1.2539 3.8438 0.61719 33.988-17.293 64.051-41.402 88.312-70.824 21.387 6.7305 43.684 10.121 66.102 10.055 93.758 0 169.77-57.25 169.77-127.87s-76.008-127.87-169.76-127.87c-93.762 0-169.77 57.25-169.77 127.87 0.55859 28.93 12.66 56.438 33.613 76.391 7.3398 39.426-13.344 88.297-22.754 107.8z"></path>
 </g>

      </g>
      </svg>