<svg id="svg" fill="#000000" stroke="#000000" width="200px" height="200px" version="1.1" viewBox="144 144 512 512" xmlns="http://www.w3.org/2000/svg">
    <g id="IconSvg_bgCarrier" stroke-width="0"></g>
    <g id="IconSvg_tracerCarrier" stroke-linecap="round" stroke-linejoin="round" stroke="#CCCCCC"></g>
     <g id="IconSvg_iconCarrier">
      <g xmlns="http://www.w3.org/2000/svg">
  <path d="m615.34 178.27c-3.1914-3.1914-7.5195-4.9844-12.035-4.9844-4.5117 0-8.8438 1.793-12.035 4.9844l-22.516 22.516c-8.3125-2.7031-17.211-3.0586-25.711-1.0195-8.5039 2.0391-16.273 6.3867-22.457 12.566l-59.621 59.621 67.082 67.082 37.23-37.23 10.773 10.777c1.8125 1.8125 1.8125 4.75 0 6.5625l-109.44 109.44c-2.4922 2.4688-3.8984 5.8281-3.9062 9.3398-0.007813 3.5078 1.3828 6.875 3.8633 9.3594 2.4844 2.4805 5.8516 3.8711 9.3594 3.8633 3.5117-0.007813 6.8711-1.4141 9.3398-3.9062l114.93-114.93c4.375-4.375 6.832-10.309 6.832-16.492 0-6.1875-2.457-12.121-6.832-16.492l-16.219-16.219 3.6875-3.6875v-0.003907c6.1797-6.1836 10.527-13.953 12.566-22.453 2.0391-8.5039 1.6875-17.402-1.0195-25.715l22.516-22.516c3.1914-3.1914 4.9844-7.5195 4.9844-12.035 0-4.5156-1.793-8.8438-4.9844-12.035z"></path>
  <path d="m508.31 348.75-57.066-57.066c-2.7656-2.7656-7.25-2.7656-10.016 0l-217.92 217.92c-3.3125 3.2852-5.8047 7.3008-7.2852 11.723l-21.328 65.25c-0.34375 1.0586-0.93359 2.0195-1.7227 2.8047l-17.617 17.621c-1.3281 1.3281-2.0742 3.1289-2.0742 5.0078 0 1.8789 0.74609 3.6797 2.0742 5.0078l7.625 7.6211c1.3281 1.3281 3.1289 2.0742 5.0039 2.0742 1.8789 0 3.6797-0.74609 5.0078-2.0742l17.621-17.617c0.78906-0.78906 1.75-1.3789 2.8086-1.7227l65.246-21.328c4.4219-1.4766 8.4375-3.9727 11.723-7.2852l217.92-217.92c1.3281-1.3281 2.0742-3.1289 2.0742-5.0078 0-1.875-0.74609-3.6797-2.0742-5.0078z"></path>
 </g>

      </g>
      </svg>