<svg xmlns="http://www.w3.org/2000/svg" viewBox="0 0 24 24"><g transform="scale(1.5000) translate(0, 0)">
    <path fill-rule="evenodd" clip-rule="evenodd" d="M9.814 1.713a4.92 4.92 0 011.402.698l-9.149 9.098C2.645 10.195 3.4 8.154 3.4 6.459a4.968 4.968 0 013.48-4.746C6.749.836 7.443 0 8.347 0c.903 0 1.598.836 1.467 1.713zM1.05 16L0 14.956 14.95.088 16 1.132 1.05 16zm14.224-3.144H5.61l7.558-7.516c.082.36.126.734.126 1.12 0 2.743 1.979 6.396 1.979 6.396zm-8.905.9c0 1.075.893 1.988 1.979 1.988s1.979-.913 1.979-1.987h-3.96z" fill="currentColor"/>
</g></svg>