<svg viewBox="0 0 1024 1024" xmlns="http://www.w3.org/2000/svg"><path d="M938 458.8L565.2 86c-12.3-12.3-32.2-12.3-44.5 0L103.1 503.5c-4.4 4.4-7.5 10.1-8.9 16.3l-55.8 249.2c-1.9 8.5.5 17.5 6.4 24 5.9 6.5 14.7 9.8 23.3 8.7l252.1-33.5c6.5-.9 12.5-3.9 17.2-8.5l372.8-372.8c12.3-12.3 12.3-32.2 0-44.5L938 458.8z" fill="currentColor" opacity=".15"/><path d="M257.7 751.1l180-24L810.5 354.3c12.5-12.5 12.5-32.8 0-45.3L673.4 171.9c-12.5-12.5-32.8-12.5-45.3 0L255.3 544.7l-24 180c-1.5 11.2 7.5 21.2 18.7 21.2.9 0 1.8 0 2.7-.1zM650.8 217.2l96 96-300.6 300.6-96-96L650.8 217.2zM286.4 590.2l70.7 70.7-11.8 88.3-58.9-58.9 11.8-88.3z" fill="currentColor"/></svg>
