<svg xmlns="http://www.w3.org/2000/svg" viewBox="0 0 24 24" fill="none" data-icon-id="Atom">
  <!-- Author: Aurora Studio -->
  <g/>
  <g/>
  <g>
    <path d="M12 12H12.01M12.5 12C12.5 12.28 12.28 12.5 12 12.5C11.72 12.5 11.5 12.28 11.5 12C11.5 11.72 11.72 11.5 12 11.5C12.28 11.5 12.5 11.72 12.5 12ZM15.18 8.82C19.48 13.11 21.54 18.02 19.78 19.78C18.02 21.54 13.11 19.48 8.82 15.18C4.52 10.89 2.46 5.98 4.22 4.22C5.98 2.46 10.89 4.52 15.18 8.82ZM8.82 8.82C4.52 13.11 2.46 18.02 4.22 19.78C5.98 21.54 10.89 19.48 15.18 15.18C19.48 10.89 21.54 5.98 19.78 4.22C18.02 2.46 13.11 4.52 8.82 8.82Z" 
          stroke="#94A3B8" stroke-width="1.5" stroke-linecap="round" stroke-linejoin="round"/>
  </g>
</svg>
