<?xml version="1.0" encoding="iso-8859-1"?><svg xmlns="http://www.w3.org/2000/svg" viewBox="0 0 24 24"><g transform="scale(0.0450) translate(0, 0)">
<g>
	<path d="M533.333,306.377v-33.333H432.662c-3.055-37.857-16.557-72.41-37.33-100.13h84.348l36.49-145.958l-32.341-8.084   l-30.177,120.708h-90.979c-0.465-0.362-0.936-0.716-1.404-1.071c3.493-10.158,5.396-21.053,5.396-32.393   c0.002-55.083-44.77-99.739-99.998-99.739c-55.229,0-100,44.655-100,99.74c0,11.339,1.901,22.235,5.397,32.393   c-0.469,0.356-0.94,0.709-1.405,1.071H79.679L49.502,18.872l-32.338,8.084l36.489,145.958h84.346   c-20.773,27.72-34.274,62.272-37.327,100.129H0v33.333h100.713c1.98,23.783,8.077,46.257,17.52,66.536H53.654L17.165,518.871   l32.338,8.085L79.68,406.247h58.518c30.569,40.641,76.769,66.536,128.469,66.536c51.7,0,97.899-25.896,128.47-66.536h58.518   l30.177,120.709l32.341-8.085l-36.49-145.958h-64.579c9.442-20.279,15.539-42.753,17.52-66.536H533.333z"/>
</g>
</g></svg>