<svg xmlns="http://www.w3.org/2000/svg" viewBox="0 0 24 24"><g transform="scale(1.5000) translate(0, 0)">
    <path fill-rule="evenodd" clip-rule="evenodd" d="M8.047.973c-3.868 0-7 3.212-7 7.177 0 3.176 2.004 5.858 4.786 6.81.35.062.481-.153.481-.342 0-.17-.008-.735-.008-1.337-1.76.332-2.214-.44-2.354-.843-.079-.206-.42-.843-.718-1.014-.245-.134-.595-.466-.008-.475.55-.009.945.52 1.076.736.63 1.085 1.636.78 2.039.592.06-.467.245-.78.446-.96-1.558-.18-3.185-.799-3.185-3.544 0-.78.271-1.426.717-1.929-.07-.18-.315-.915.07-1.902 0 0 .587-.188 1.925.736a6.443 6.443 0 013.5 0c1.34-.933 1.925-.736 1.925-.736.385.987.14 1.723.07 1.902.447.503.718 1.14.718 1.93 0 2.753-1.636 3.363-3.194 3.543.254.224.473.655.473 1.328 0 .96-.01 1.731-.01 1.973 0 .189.132.413.482.341 2.818-.975 4.768-3.76 4.769-6.81 0-3.964-3.133-7.176-7-7.176z" fill="currentColor"/>
</g></svg>