<svg xmlns="http://www.w3.org/2000/svg" viewBox="0 0 24 24"><g transform="scale(1.5000) translate(0, 0)">
    <path d="M14.99 3.584c-.527.24-1.063.509-1.637.579.604-.372 1.078-1.065 1.294-1.754a5.729 5.729 0 01-1.838.743c-2.17-2.637-5.607-.33-4.925 2.734-2.404-.124-4.571-1.329-5.998-3.13-.766 1.354-.274 3.118.95 3.96-.46-.015-.932-.066-1.334-.295C1.45 7.886 2.561 9.04 3.826 9.3a2.75 2.75 0 01-1.279.052c.369 1.182 1.391 2.138 2.657 2.162-1.22.986-2.71 1.411-4.213 1.227C6.196 16.185 13.9 12.2 13.595 5.168c.566-.42 1.007-.987 1.396-1.584z" fill="currentColor"/>
</g></svg>